<?xml version="1.0" encoding="iso-8859-1"?>
<!-- Uploaded to: SVG Repo, www.svgrepo.com, Generator: SVG Repo Mixer Tools -->
<svg height="800px" width="800px" version="1.1" id="Layer_1" xmlns="http://www.w3.org/2000/svg" xmlns:xlink="http://www.w3.org/1999/xlink" 
	 viewBox="0 0 508 508" xml:space="preserve">
<g>
	<polygon style="fill:#4CDBC4;" points="242.4,302.4 230.8,282.4 242.4,262 265.6,262 277.2,282.4 265.6,302.4 	"/>
	<polygon style="fill:#4CDBC4;" points="274,376.4 234,376.4 242.4,302.4 265.6,302.4 	"/>
</g>
<circle style="fill:#FD8469;" cx="254" cy="254" r="254"/>
<path style="fill:#324A5E;" d="M291.6,219.6L291.6,219.6h-75.2l0,0c0,15.2-9.6,29.2-24.4,33.6c-52.4,16.4-90.4,65.2-90.4,123.2l0,0
	h304.8l0,0c0-58-38-106.8-90.4-123.2C301.2,248.8,291.6,234.8,291.6,219.6z"/>
<polygon style="fill:#CED5E0;" points="292.4,227.6 215.6,227.6 196.4,251.6 249.6,376.4 258.4,376.4 311.6,251.6 "/>
<g>
	<polygon style="fill:#E6E9EE;" points="292.4,227.6 254,262 285.6,312 311.6,251.6 	"/>
	<polygon style="fill:#E6E9EE;" points="215.6,227.6 254,262 222.4,312 196.4,251.6 	"/>
</g>
<path style="fill:#FFFFFF;" d="M325.2,151.6c0,46-32,91.2-71.2,91.2s-71.2-45.2-71.2-91.2s32-83.2,71.2-83.2
	C293.2,68.4,325.2,105.6,325.2,151.6z"/>
<path style="fill:#324A5E;" d="M319.2,118.4c-11.2-29.6-36-50-65.2-50c-39.2,0-71.2,37.2-71.2,83.2c0,0.4,0.4,0.8,0.4,1.6
	c0,0.4-0.4,0.8-0.4,1.2c0-0.4,0.4-0.8,0.4-1.2l0,0c0-0.4,0-0.4,0.4-0.8c1.6-4.8,3.6-10,6-14.4c3.2-6.4,7.2-12.8,13.2-15.6
	c6.8-3.2,14.8-0.8,22-0.8c8.8,0,17.6-2.8,23.6-10c2-2.8,3.6-5.6,5.6-8c6-7.2,16.8-8.8,25.2-5.6c8.4,3.2,15.6,10,20.8,18
	c5.6,7.6,9.6,16.4,14.8,24.4c2.8,4,5.6,8,10,10C325.6,139.2,323.2,128.4,319.2,118.4z"/>
<g>
	<ellipse style="fill:#FFFFFF;" cx="326" cy="163.6" rx="9.2" ry="17.2"/>
	<ellipse style="fill:#FFFFFF;" cx="182" cy="163.6" rx="9.2" ry="17.2"/>
</g>
<g>
	<path style="fill:#2B3B4E;" d="M352.8,271.6c0,0-16.4-12.8-41.2-20l-53.2,124.8H286l54.8-60.4l-22.4-6.4L352.8,271.6z"/>
	<path style="fill:#2B3B4E;" d="M155.2,271.6c0,0,16.4-12.8,41.2-20l53.2,124.8H222L167.2,316l22.4-6.4L155.2,271.6z"/>
</g>
</svg>